<?xml version="1.0" encoding="UTF-8"?>
<svg id="_Слой_2" data-name="Слой 2" xmlns="http://www.w3.org/2000/svg" viewBox="0 0 37.99 59.09">
  <g id="_1920" data-name="1920">
    <path id="_Лого_заключительное" data-name="Лого заключительное" d="m18.59,59.07c6.32,0,10.14-2.99,10.96-5.53l4.18,5.16c.19.19.29.38.55.38.19,0,.46-.19.36-.65-.46-2.44-.65-6.19-.65-8.35v-1.5c0-6.65.65-8.25,3.53-8.9.36-.1.46-.19.46-.48,0-.19-.19-.38-.55-.38h-12.27c-.36,0-.55.19-.55.38,0,.29.19.48.46.57,3.25.65,4.28,2.06,4.28,8.82v3.94c-1.93,1.93-5.08,2.41-7.7,2.41-8.74,0-16.53-6.38-16.53-17.34,0-7.22,3.44-12.75,8.17-15.66v7.87c0,6.75-.93,8.25-4.37,8.82-.36.1-.46.27-.46.48,0,.19.1.48.55.48h13.48c.36,0,.55-.19.55-.48,0-.27-.19-.38-.46-.48-3.48-.59-4.39-2.07-4.39-8.92v-9.66c.84-.1,1.69-.17,2.52-.17,6.78,0,8.65,2.99,9.57,7.6.1.38.29.48.55.48.19,0,.36-.19.36-.57v-12.19c0-.38-.19-.57-.36-.57-.29,0-.46.19-.55.48-1.11,4.04-4.83,3.47-9.49,3.47-.93,0-1.76.1-2.6.19V1.43h8c6.51,0,9.3,2.91,10.04,9.19.1.38.19.57.46.57.19,0,.36-.19.36-.57V.57c0-.38-.19-.57-.55-.57H8.82c-.36,0-.55.19-.55.48s.19.48.46.57c3.44.65,4.56,2,4.56,8.74v9.95C5.65,22.38,0,29.35,0,39.2c0,12.37,9.01,19.87,18.59,19.87h0Z"/>
  </g>
</svg>