<?xml version="1.0" encoding="UTF-8"?>
<svg id="_Слой_2" data-name="Слой 2" xmlns="http://www.w3.org/2000/svg" viewBox="0 0 113.95 102.94">
  <defs>
    <style>
      .cls-1 {
        fill: #dd7737;
      }
    </style>
  </defs>
  <g id="_Слой_1-2" data-name="Слой 1">
    <path class="cls-1" d="m113.92,30.74h0c.02-.39.03-.78.03-1.18,0-15.84-13.36-29.57-29.84-29.57-12.05,0-22.42,7.76-27.13,17.64h0C52.26,7.76,41.89,0,29.84,0,13.36,0,0,13.73,0,29.57c0,.39.01.79.03,1.18h0s-1.68,18.81,19.25,39.35c9.52,9.54,20.17,18.6,37.69,32.85,17.52-14.24,28.17-23.31,37.69-32.85,20.94-20.54,19.25-39.35,19.25-39.35Z"/>
  </g>
</svg>