<?xml version="1.0" encoding="UTF-8"?>
<svg id="_Слой_2" data-name="Слой 2" xmlns="http://www.w3.org/2000/svg" viewBox="0 0 70.62 70.62">
  <defs>
    <style>
      .cls-1 {
        fill: #666;
      }
    </style>
  </defs>
  <g id="_1920" data-name="1920">
    <g>
      <path class="cls-1" d="m35.31,70.62C15.84,70.62,0,54.78,0,35.31S15.84,0,35.31,0s35.31,15.84,35.31,35.31-15.84,35.31-35.31,35.31Zm0-68.19C17.18,2.43,2.43,17.18,2.43,35.31s14.75,32.88,32.88,32.88,32.88-14.75,32.88-32.88S53.44,2.43,35.31,2.43Z"/>
      <path class="cls-1" d="m12.81,24.85c1.92,0,6.02,0,7.41,0,.29,0,.54.17.66.43,1.7,3.7,3.77,7.05,6.27,10,.21.35.73.31.89-.07.78-1.9,2.22-6.51-.57-9.79-.25-.29-.15-.75.21-.9,2.82-1.18,5.58-1.35,8.27-.14.56.25.93.81.93,1.43l.63,9.51c0,.42.39.76.8.67,3.1-.66,4.92-5.29,6.72-10.14.22-.6.78-1,1.42-1h6.82c.56,0,1.01.5.91,1.05-.64,3.44-4.1,7.89-5.9,10.03-.63.74-.63,1.82,0,2.56l6.1,7.26c.44.52.07,1.32-.61,1.32h-7.72c-.63,0-1.24-.26-1.67-.73l-5.4-4.49c-.28-.3-.81-.41-1.07-.09-.67.81-.62,1.82-.93,4.09-.1.71-.74,1.22-1.46,1.22h-5.28c-.75,0-1.49-.16-2.17-.48-3.03-1.44-11.3-6.52-15.95-20.77-.16-.48.2-.98.71-.98Z"/>
    </g>
  </g>
</svg>