<?xml version="1.0" encoding="UTF-8"?>
<svg id="_Слой_2" data-name="Слой 2" xmlns="http://www.w3.org/2000/svg" viewBox="0 0 54.48 49.22">
  <defs>
    <style>
      .cls-1 {
        fill: #d58484;
      }
    </style>
  </defs>
  <g id="_1920" data-name="1920">
    <g id="_Ваши_новые" data-name="Ваши новые">
      <g id="_Сердце" data-name="Сердце">
        <path class="cls-1" d="m54.47,14.7h0c0-.19.01-.37.01-.56,0-7.57-6.39-14.14-14.27-14.14-5.76,0-10.72,3.71-12.97,8.43h0C24.99,3.71,20.03,0,14.27,0,6.39,0,0,6.56,0,14.14c0,.19,0,.38.01.56h0s-.81,9,9.21,18.82c4.55,4.56,9.64,8.89,18.02,15.7,8.38-6.81,13.47-11.14,18.02-15.7,10.01-9.82,9.21-18.82,9.21-18.82Z"/>
      </g>
    </g>
  </g>
</svg>